<svg width="400" height="400" viewBox="0 0 400 400" fill="none" xmlns="http://www.w3.org/2000/svg">
<path fill-rule="evenodd" clip-rule="evenodd" d="M249.5 340.611C144.89 379.466 -39.5647 285.957 84.2593 129.683C46.258 75.4568 108.17 36.6017 144.89 77.5917C168.374 66.0633 196.982 63.5014 214.061 66.0633C223.881 50.2651 248.219 52.8269 251.208 75.4568C272.984 82.7155 357.541 120.29 362.649 183.91C367.758 247.529 315.682 285.957 294.76 285.957C266.617 285.957 234.556 294.497 249.5 340.611ZM224.308 316.273C151.722 320.543 41.1344 238.563 111.586 128.402C66.7531 85.2773 115.429 59.2316 137.632 104.491C157.273 90.4011 194.42 80.1537 228.578 90.4012C260.175 99.8802 302.872 125.413 315.255 140.358C259.321 161.28 278.962 239.844 317.39 242.406C318.593 261.255 293.473 264.541 276.575 266.751C275.483 266.894 274.425 267.033 273.411 267.17C255.478 269.607 227.724 282.115 224.308 316.273ZM329.345 173.662C329.345 178.85 325.331 183.056 320.379 183.056C315.426 183.056 311.412 178.85 311.412 173.662C311.412 168.474 315.426 164.268 320.379 164.268C325.331 164.268 329.345 168.474 329.345 173.662ZM213.634 155.729C221.887 155.729 228.578 149.038 228.578 140.785C228.578 132.531 221.887 125.84 213.634 125.84C205.38 125.84 198.69 132.531 198.69 140.785C198.69 149.038 205.38 155.729 213.634 155.729Z" fill="black"/>
</svg>
